<svg width="26" height="29" viewBox="0 0 26 29" fill="none" xmlns="http://www.w3.org/2000/svg">
<path d="M23.625 2.75H20.4375V1.6875C20.4375 1.40571 20.3256 1.13546 20.1263 0.936199C19.927 0.736942 19.6568 0.625 19.375 0.625C19.0932 0.625 18.823 0.736942 18.6237 0.936199C18.4244 1.13546 18.3125 1.40571 18.3125 1.6875V2.75H7.6875V1.6875C7.6875 1.40571 7.57556 1.13546 7.3763 0.936199C7.17704 0.736942 6.90679 0.625 6.625 0.625C6.34321 0.625 6.07296 0.736942 5.8737 0.936199C5.67444 1.13546 5.5625 1.40571 5.5625 1.6875V2.75H2.375C1.81141 2.75 1.27091 2.97388 0.872398 3.3724C0.473883 3.77091 0.25 4.31141 0.25 4.875V26.125C0.25 26.6886 0.473883 27.2291 0.872398 27.6276C1.27091 28.0261 1.81141 28.25 2.375 28.25H23.625C24.1886 28.25 24.7291 28.0261 25.1276 27.6276C25.5261 27.2291 25.75 26.6886 25.75 26.125V4.875C25.75 4.31141 25.5261 3.77091 25.1276 3.3724C24.7291 2.97388 24.1886 2.75 23.625 2.75ZM5.5625 4.875V5.9375C5.5625 6.21929 5.67444 6.48954 5.8737 6.6888C6.07296 6.88806 6.34321 7 6.625 7C6.90679 7 7.17704 6.88806 7.3763 6.6888C7.57556 6.48954 7.6875 6.21929 7.6875 5.9375V4.875H18.3125V5.9375C18.3125 6.21929 18.4244 6.48954 18.6237 6.6888C18.823 6.88806 19.0932 7 19.375 7C19.6568 7 19.927 6.88806 20.1263 6.6888C20.3256 6.48954 20.4375 6.21929 20.4375 5.9375V4.875H23.625V9.125H2.375V4.875H5.5625ZM23.625 26.125H2.375V11.25H23.625V26.125ZM15.125 18.6875C15.125 19.1078 15.0004 19.5186 14.7669 19.8681C14.5334 20.2175 14.2015 20.4899 13.8132 20.6507C13.4249 20.8116 12.9976 20.8537 12.5854 20.7717C12.1732 20.6897 11.7946 20.4873 11.4974 20.1901C11.2002 19.8929 10.9978 19.5143 10.9158 19.1021C10.8338 18.6899 10.8759 18.2626 11.0368 17.8743C11.1976 17.486 11.47 17.1541 11.8194 16.9206C12.1689 16.6871 12.5797 16.5625 13 16.5625C13.5636 16.5625 14.1041 16.7864 14.5026 17.1849C14.9011 17.5834 15.125 18.1239 15.125 18.6875Z" fill="white"/>
</svg>
