<svg width="29" height="29" viewBox="0 0 29 29" fill="none" xmlns="http://www.w3.org/2000/svg">
<path d="M16.2637 14.5C16.2637 14.8152 16.1702 15.1233 15.9951 15.3854C15.82 15.6475 15.571 15.8518 15.2798 15.9724C14.9886 16.093 14.6682 16.1246 14.359 16.0631C14.0498 16.0016 13.7659 15.8498 13.543 15.6269C13.3201 15.404 13.1683 15.12 13.1068 14.8109C13.0453 14.5017 13.0769 14.1813 13.1975 13.89C13.3181 13.5988 13.5224 13.3499 13.7845 13.1748C14.0466 12.9997 14.3547 12.9062 14.6699 12.9062C15.0926 12.9062 15.498 13.0741 15.7969 13.373C16.0958 13.6719 16.2637 14.0773 16.2637 14.5ZM8.82617 12.9062C8.51096 12.9062 8.20282 12.9997 7.94073 13.1748C7.67864 13.3499 7.47437 13.5988 7.35374 13.89C7.23311 14.1813 7.20155 14.5017 7.26304 14.8109C7.32454 15.12 7.47633 15.404 7.69922 15.6269C7.92211 15.8498 8.20609 16.0016 8.51525 16.0631C8.8244 16.1246 9.14485 16.093 9.43607 15.9724C9.72729 15.8518 9.9762 15.6475 10.1513 15.3854C10.3265 15.1233 10.4199 14.8152 10.4199 14.5C10.4199 14.0773 10.252 13.6719 9.95312 13.373C9.65424 13.0741 9.24886 12.9062 8.82617 12.9062ZM20.5137 12.9062C20.1985 12.9062 19.8903 12.9997 19.6282 13.1748C19.3661 13.3499 19.1619 13.5988 19.0412 13.89C18.9206 14.1813 18.889 14.5017 18.9505 14.8109C19.012 15.12 19.1638 15.404 19.3867 15.6269C19.6096 15.8498 19.8936 16.0016 20.2027 16.0631C20.5119 16.1246 20.8324 16.093 21.1236 15.9724C21.4148 15.8518 21.6637 15.6475 21.8388 15.3854C22.014 15.1233 22.1074 14.8152 22.1074 14.5C22.1074 14.0773 21.9395 13.6719 21.6406 13.373C21.3417 13.0741 20.9364 12.9062 20.5137 12.9062ZM28.4824 14.5C28.4829 16.8846 27.8661 19.2288 26.6918 21.3044C25.5176 23.3799 23.8259 25.1161 21.7816 26.3439C19.7373 27.5718 17.4099 28.2494 15.026 28.3109C12.6421 28.3724 10.2829 27.8156 8.17805 26.6948L3.65578 28.2022C3.28136 28.3271 2.87957 28.3452 2.49543 28.2545C2.1113 28.1639 1.76 27.968 1.48091 27.689C1.20182 27.4099 1.00598 27.0586 0.915325 26.6744C0.824671 26.2903 0.842792 25.8885 0.967656 25.5141L2.47508 20.9918C1.48981 19.1394 0.939496 17.0869 0.865918 14.99C0.792341 12.8931 1.19743 10.8071 2.05044 8.89013C2.90344 6.9732 4.18195 5.27578 5.78891 3.92674C7.39586 2.57769 9.28904 1.61246 11.3247 1.10432C13.3604 0.596172 15.4851 0.558471 17.5376 0.994072C19.59 1.42967 21.5162 2.32713 23.17 3.61832C24.8238 4.9095 26.1618 6.56049 27.0822 8.44595C28.0027 10.3314 28.4816 12.4018 28.4824 14.5ZM26.3574 14.5C26.3569 12.7071 25.944 10.9385 25.1505 9.33081C24.3571 7.72314 23.2045 6.31954 21.7818 5.22862C20.3591 4.13769 18.7045 3.38869 16.946 3.03954C15.1876 2.6904 13.3723 2.75048 11.6408 3.21513C9.90923 3.67979 8.3078 4.53656 6.96036 5.71917C5.61292 6.90178 4.55561 8.37852 3.87022 10.0351C3.18483 11.6918 2.88974 13.4839 3.00778 15.2728C3.12582 17.0617 3.65382 18.7995 4.55094 20.3517C4.62623 20.482 4.67298 20.6268 4.6881 20.7765C4.70321 20.9263 4.68633 21.0775 4.63859 21.2203L2.98242 26.1874L7.94961 24.5313C8.0578 24.4944 8.17132 24.4755 8.28562 24.4755C8.47223 24.4758 8.65546 24.5253 8.81687 24.6189C10.5936 25.6469 12.6098 26.1888 14.6625 26.1901C16.7153 26.1914 18.7321 25.6521 20.5102 24.6263C22.2882 23.6006 23.7648 22.1246 24.7913 20.347C25.8177 18.5693 26.3579 16.5527 26.3574 14.5Z" fill="white"/>
</svg>
