<svg width="12" height="13" viewBox="0 0 12 13" fill="none" xmlns="http://www.w3.org/2000/svg">
<path d="M7.21875 4.875H4.78125C4.67351 4.875 4.57017 4.9178 4.49399 4.99399C4.4178 5.07017 4.375 5.17351 4.375 5.28125V7.71875C4.375 7.82649 4.4178 7.92983 4.49399 8.00601C4.57017 8.0822 4.67351 8.125 4.78125 8.125H7.21875C7.32649 8.125 7.42983 8.0822 7.50601 8.00601C7.5822 7.92983 7.625 7.82649 7.625 7.71875V5.28125C7.625 5.17351 7.5822 5.07017 7.50601 4.99399C7.42983 4.9178 7.32649 4.875 7.21875 4.875ZM6.8125 7.3125H5.1875V5.6875H6.8125V7.3125ZM11.2812 7.3125H10.4688V5.6875H11.2812C11.389 5.6875 11.4923 5.6447 11.5685 5.56851C11.6447 5.49233 11.6875 5.38899 11.6875 5.28125C11.6875 5.17351 11.6447 5.07017 11.5685 4.99399C11.4923 4.9178 11.389 4.875 11.2812 4.875H10.4688V2.84375C10.4688 2.62826 10.3831 2.4216 10.2308 2.26923C10.0784 2.11685 9.87174 2.03125 9.65625 2.03125H7.625V1.21875C7.625 1.11101 7.5822 1.00767 7.50601 0.931488C7.42983 0.855301 7.32649 0.8125 7.21875 0.8125C7.11101 0.8125 7.00767 0.855301 6.93149 0.931488C6.8553 1.00767 6.8125 1.11101 6.8125 1.21875V2.03125H5.1875V1.21875C5.1875 1.11101 5.1447 1.00767 5.06851 0.931488C4.99233 0.855301 4.88899 0.8125 4.78125 0.8125C4.67351 0.8125 4.57017 0.855301 4.49399 0.931488C4.4178 1.00767 4.375 1.11101 4.375 1.21875V2.03125H2.34375C2.12826 2.03125 1.9216 2.11685 1.76923 2.26923C1.61685 2.4216 1.53125 2.62826 1.53125 2.84375V4.875H0.71875C0.611006 4.875 0.507675 4.9178 0.431488 4.99399C0.355301 5.07017 0.3125 5.17351 0.3125 5.28125C0.3125 5.38899 0.355301 5.49233 0.431488 5.56851C0.507675 5.6447 0.611006 5.6875 0.71875 5.6875H1.53125V7.3125H0.71875C0.611006 7.3125 0.507675 7.3553 0.431488 7.43149C0.355301 7.50767 0.3125 7.61101 0.3125 7.71875C0.3125 7.82649 0.355301 7.92983 0.431488 8.00601C0.507675 8.0822 0.611006 8.125 0.71875 8.125H1.53125V10.1562C1.53125 10.3717 1.61685 10.5784 1.76923 10.7308C1.9216 10.8831 2.12826 10.9688 2.34375 10.9688H4.375V11.7812C4.375 11.889 4.4178 11.9923 4.49399 12.0685C4.57017 12.1447 4.67351 12.1875 4.78125 12.1875C4.88899 12.1875 4.99233 12.1447 5.06851 12.0685C5.1447 11.9923 5.1875 11.889 5.1875 11.7812V10.9688H6.8125V11.7812C6.8125 11.889 6.8553 11.9923 6.93149 12.0685C7.00767 12.1447 7.11101 12.1875 7.21875 12.1875C7.32649 12.1875 7.42983 12.1447 7.50601 12.0685C7.5822 11.9923 7.625 11.889 7.625 11.7812V10.9688H9.65625C9.87174 10.9688 10.0784 10.8831 10.2308 10.7308C10.3831 10.5784 10.4688 10.3717 10.4688 10.1562V8.125H11.2812C11.389 8.125 11.4923 8.0822 11.5685 8.00601C11.6447 7.92983 11.6875 7.82649 11.6875 7.71875C11.6875 7.61101 11.6447 7.50767 11.5685 7.43149C11.4923 7.3553 11.389 7.3125 11.2812 7.3125ZM9.65625 10.1562H2.34375V2.84375H9.65625V7.71215C9.65625 7.71215 9.65625 7.71672 9.65625 7.71875C9.65625 7.72078 9.65625 7.72332 9.65625 7.72535V10.1562Z" fill="white"/>
</svg>
