<svg width="20" height="20" viewBox="0 0 20 20" fill="none" xmlns="http://www.w3.org/2000/svg">
<path d="M16.7469 13.0047L13.0672 11.3554L13.0578 11.3507C12.8666 11.2689 12.6581 11.236 12.451 11.2551C12.2439 11.2742 12.0449 11.3447 11.8719 11.4601C11.8515 11.4736 11.832 11.4882 11.8133 11.5039L9.91173 13.125C8.70704 12.5398 7.46329 11.3054 6.87813 10.1164L8.50157 8.1859C8.51719 8.16637 8.53204 8.14684 8.5461 8.12575C8.65894 7.95333 8.72739 7.75568 8.74539 7.55041C8.76338 7.34514 8.73034 7.1386 8.64923 6.94918V6.93981L6.99532 3.25309C6.88809 3.00564 6.7037 2.79951 6.46968 2.66546C6.23567 2.53142 5.96458 2.47665 5.69688 2.50934C4.63826 2.64864 3.66655 3.16853 2.96324 3.97191C2.25992 4.77529 1.87309 5.80722 1.87501 6.87496C1.87501 13.0781 6.92188 18.125 13.125 18.125C14.1927 18.1269 15.2247 17.7401 16.0281 17.0367C16.8314 16.3334 17.3513 15.3617 17.4906 14.3031C17.5233 14.0354 17.4686 13.7643 17.3345 13.5303C17.2005 13.2963 16.9943 13.1119 16.7469 13.0047ZM13.125 16.875C10.4737 16.8721 7.93187 15.8176 6.05714 13.9428C4.1824 12.0681 3.1279 9.52624 3.12501 6.87496C3.12207 6.11207 3.39692 5.37418 3.89824 4.79911C4.39956 4.22404 5.09306 3.85111 5.84923 3.74996C5.84892 3.75308 5.84892 3.75622 5.84923 3.75934L7.48985 7.43121L5.87501 9.36403C5.85862 9.38289 5.84373 9.403 5.83048 9.42418C5.71291 9.60459 5.64394 9.8123 5.63025 10.0272C5.61657 10.2421 5.65862 10.4569 5.75235 10.6507C6.46016 12.0984 7.91876 13.5461 9.38204 14.2531C9.57732 14.3459 9.79335 14.3865 10.009 14.3709C10.2247 14.3553 10.4326 14.284 10.6125 14.164C10.6328 14.1505 10.6521 14.1356 10.6703 14.1195L12.5695 12.5L16.2414 14.1453C16.2414 14.1453 16.2477 14.1453 16.25 14.1453C16.1499 14.9024 15.7775 15.5971 15.2023 16.0995C14.6272 16.6019 13.8887 16.8776 13.125 16.875ZM15 8.12496V3.74996C15 3.5842 15.0659 3.42523 15.1831 3.30802C15.3003 3.19081 15.4592 3.12496 15.625 3.12496C15.7908 3.12496 15.9497 3.19081 16.0669 3.30802C16.1842 3.42523 16.25 3.5842 16.25 3.74996V8.12496C16.25 8.29072 16.1842 8.4497 16.0669 8.56691C15.9497 8.68412 15.7908 8.74996 15.625 8.74996C15.4592 8.74996 15.3003 8.68412 15.1831 8.56691C15.0659 8.4497 15 8.29072 15 8.12496ZM11.875 8.12496V3.74996C11.875 3.5842 11.9409 3.42523 12.0581 3.30802C12.1753 3.19081 12.3342 3.12496 12.5 3.12496C12.6658 3.12496 12.8247 3.19081 12.9419 3.30802C13.0592 3.42523 13.125 3.5842 13.125 3.74996V8.12496C13.125 8.29072 13.0592 8.4497 12.9419 8.56691C12.8247 8.68412 12.6658 8.74996 12.5 8.74996C12.3342 8.74996 12.1753 8.68412 12.0581 8.56691C11.9409 8.4497 11.875 8.29072 11.875 8.12496Z" fill="white"/>
</svg>
