<svg width="29" height="29" viewBox="0 0 29 29" fill="none" xmlns="http://www.w3.org/2000/svg">
<path d="M14.3301 0.6875C11.5982 0.6875 8.92772 1.49759 6.65627 3.01533C4.38482 4.53306 2.61443 6.69028 1.569 9.21418C0.523563 11.7381 0.250029 14.5153 0.782988 17.1947C1.31595 19.874 2.63146 22.3352 4.56317 24.2669C6.49488 26.1986 8.95604 27.5141 11.6354 28.0471C14.3148 28.5801 17.092 28.3065 19.6159 27.2611C22.1398 26.2157 24.297 24.4453 25.8148 22.1738C27.3325 19.9024 28.1426 17.2319 28.1426 14.5C28.1387 10.8379 26.6822 7.32687 24.0927 4.73736C21.5032 2.14785 17.9922 0.691367 14.3301 0.6875ZM15.3926 2.86164C16.1119 2.92728 16.8234 3.06068 17.5176 3.26008V25.7452C16.8234 25.9446 16.1119 26.078 15.3926 26.1437V2.86164ZM19.6426 4.09148C20.3999 4.47919 21.1124 4.9486 21.7676 5.49133V23.5087C21.1124 24.0514 20.3999 24.5208 19.6426 24.9085V4.09148ZM2.64258 14.5C2.64609 11.5853 3.7372 8.77682 5.70236 6.62424C7.66751 4.47165 10.3653 3.12992 13.2676 2.86164V26.1384C10.3653 25.8701 7.66751 24.5283 5.70236 22.3758C3.7372 20.2232 2.64609 17.4147 2.64258 14.5ZM23.8926 21.2123V7.78766C25.2755 9.75278 26.0176 12.0971 26.0176 14.5C26.0176 16.9029 25.2755 19.2472 23.8926 21.2123Z" fill="white"/>
</svg>
