<svg width="13" height="10" viewBox="0 0 13 10" fill="none" xmlns="http://www.w3.org/2000/svg">
<path d="M8.53125 3.28125H4.46875C3.93003 3.28125 3.41338 3.49525 3.03244 3.87619C2.65151 4.25712 2.4375 4.77378 2.4375 5.3125V5.71875C2.4375 5.9855 2.49004 6.24963 2.59212 6.49607C2.6942 6.74252 2.84382 6.96644 3.03244 7.15506C3.41338 7.53599 3.93003 7.75 4.46875 7.75H8.53125C8.798 7.75 9.06214 7.69746 9.30858 7.59538C9.55502 7.4933 9.77894 7.34368 9.96756 7.15506C10.1562 6.96644 10.3058 6.74252 10.4079 6.49607C10.51 6.24963 10.5625 5.9855 10.5625 5.71875V5.3125C10.5625 4.77378 10.3485 4.25712 9.96756 3.87619C9.58663 3.49525 9.06997 3.28125 8.53125 3.28125ZM9.75 5.71875C9.75 6.04198 9.6216 6.35197 9.39304 6.58053C9.16448 6.80909 8.85449 6.9375 8.53125 6.9375H4.46875C4.14552 6.9375 3.83553 6.80909 3.60697 6.58053C3.37841 6.35197 3.25 6.04198 3.25 5.71875V5.3125C3.25 4.98927 3.37841 4.67927 3.60697 4.45071C3.83553 4.22215 4.14552 4.09375 4.46875 4.09375H8.53125C8.85449 4.09375 9.16448 4.22215 9.39304 4.45071C9.6216 4.67927 9.75 4.98927 9.75 5.3125V5.71875ZM10.5625 0.0312483C10.2022 0.0315889 9.85226 0.151416 9.5674 0.371959C9.28253 0.592503 9.07886 0.901306 8.98828 1.25H4.01172C3.91348 0.866301 3.67849 0.531692 3.35091 0.30906C3.02333 0.0864273 2.62571 -0.00889963 2.23279 0.0409948C1.83988 0.0908893 1.47871 0.28257 1.21717 0.580011C0.955626 0.877453 0.811724 1.26017 0.812503 1.65625V5.71875C0.813578 6.68812 1.19913 7.61747 1.88458 8.30292C2.57003 8.98837 3.49939 9.37392 4.46875 9.375H8.53125C9.50062 9.37392 10.43 8.98837 11.1154 8.30292C11.8009 7.61747 12.1864 6.68812 12.1875 5.71875V1.65625C12.1875 1.22527 12.0163 0.811946 11.7116 0.5072C11.4068 0.202453 10.9935 0.0312483 10.5625 0.0312483ZM11.375 5.71875C11.3742 6.47271 11.0743 7.19556 10.5412 7.72869C10.0081 8.26182 9.28522 8.56169 8.53125 8.5625H4.46875C3.71479 8.56169 2.99194 8.26182 2.45881 7.72869C1.92568 7.19556 1.62581 6.47271 1.625 5.71875V1.65625C1.625 1.44076 1.71061 1.2341 1.86298 1.08172C2.01535 0.929351 2.22201 0.843748 2.4375 0.843748C2.65299 0.843748 2.85965 0.929351 3.01203 1.08172C3.1644 1.2341 3.25 1.44076 3.25 1.65625C3.25 1.76399 3.2928 1.86732 3.36899 1.94351C3.44518 2.0197 3.54851 2.0625 3.65625 2.0625H9.34375C9.4515 2.0625 9.55483 2.0197 9.63102 1.94351C9.7072 1.86732 9.75 1.76399 9.75 1.65625C9.75 1.44076 9.83561 1.2341 9.98798 1.08172C10.1404 0.929351 10.347 0.843748 10.5625 0.843748C10.778 0.843748 10.9847 0.929351 11.137 1.08172C11.2894 1.2341 11.375 1.44076 11.375 1.65625V5.71875ZM5.28125 5.51562C5.28125 5.63615 5.24551 5.75396 5.17856 5.85417C5.1116 5.95438 5.01642 6.03249 4.90508 6.07861C4.79373 6.12473 4.6712 6.1368 4.55299 6.11329C4.43479 6.08978 4.32621 6.03174 4.24098 5.94652C4.15576 5.86129 4.09772 5.75271 4.07421 5.63451C4.0507 5.5163 4.06277 5.39377 4.10889 5.28243C4.15501 5.17108 4.23312 5.07591 4.33333 5.00895C4.43354 4.94199 4.55136 4.90625 4.67188 4.90625C4.83349 4.90625 4.98849 4.97045 5.10277 5.08473C5.21705 5.19901 5.28125 5.35401 5.28125 5.51562ZM8.9375 5.51562C8.9375 5.63615 8.90176 5.75396 8.8348 5.85417C8.76785 5.95438 8.67267 6.03249 8.56133 6.07861C8.44998 6.12473 8.32745 6.1368 8.20925 6.11329C8.09104 6.08978 7.98246 6.03174 7.89724 5.94652C7.81201 5.86129 7.75397 5.75271 7.73046 5.63451C7.70695 5.5163 7.71902 5.39377 7.76514 5.28243C7.81126 5.17108 7.88937 5.07591 7.98958 5.00895C8.08979 4.94199 8.2076 4.90625 8.32813 4.90625C8.48974 4.90625 8.64474 4.97045 8.75902 5.08473C8.8733 5.19901 8.9375 5.35401 8.9375 5.51562Z" fill="white"/>
</svg>
