<svg width="11" height="12" viewBox="0 0 11 12" fill="none" xmlns="http://www.w3.org/2000/svg">
<path d="M9.25223 1.77575C8.51442 1.03362 7.57291 0.527227 6.54702 0.320725C5.52112 0.114223 4.45702 0.216913 3.48954 0.615781C2.52206 1.01465 1.69477 1.69174 1.11249 2.56126C0.530212 3.43077 0.219159 4.45357 0.21875 5.50004V8.34379C0.21875 8.66703 0.347154 8.97702 0.575714 9.20558C0.804274 9.43414 1.11427 9.56254 1.4375 9.56254H2.25C2.57323 9.56254 2.88323 9.43414 3.11179 9.20558C3.34035 8.97702 3.46875 8.66703 3.46875 8.34379V6.31254C3.46875 5.98931 3.34035 5.67932 3.11179 5.45076C2.88323 5.2222 2.57323 5.09379 2.25 5.09379H1.04953C1.12788 4.24673 1.44605 3.43955 1.96675 2.76685C2.48746 2.09415 3.18913 1.58381 3.98951 1.29564C4.7899 1.00748 5.65584 0.953423 6.48585 1.13982C7.31586 1.32621 8.07554 1.74533 8.67586 2.34805C9.40959 3.08555 9.86091 4.05738 9.95098 5.09379H8.75C8.42677 5.09379 8.11677 5.2222 7.88821 5.45076C7.65965 5.67932 7.53125 5.98931 7.53125 6.31254V8.34379C7.53125 8.66703 7.65965 8.97702 7.88821 9.20558C8.11677 9.43414 8.42677 9.56254 8.75 9.56254H9.96875C9.96875 9.88578 9.84035 10.1958 9.61179 10.4243C9.38323 10.6529 9.07323 10.7813 8.75 10.7813H5.90625C5.79851 10.7813 5.69517 10.8241 5.61899 10.9003C5.5428 10.9765 5.5 11.0798 5.5 11.1875C5.5 11.2953 5.5428 11.3986 5.61899 11.4748C5.69517 11.551 5.79851 11.5938 5.90625 11.5938H8.75C9.28872 11.5938 9.80538 11.3798 10.1863 10.9989C10.5672 10.6179 10.7812 10.1013 10.7812 9.56254V5.50004C10.7839 4.8092 10.6502 4.12463 10.3878 3.48555C10.1254 2.84646 9.73954 2.26543 9.25223 1.77575ZM2.25 5.90629C2.35774 5.90629 2.46108 5.94909 2.53726 6.02528C2.61345 6.10147 2.65625 6.2048 2.65625 6.31254V8.34379C2.65625 8.45154 2.61345 8.55487 2.53726 8.63106C2.46108 8.70724 2.35774 8.75004 2.25 8.75004H1.4375C1.32976 8.75004 1.22642 8.70724 1.15024 8.63106C1.07405 8.55487 1.03125 8.45154 1.03125 8.34379V5.90629H2.25ZM8.75 8.75004C8.64226 8.75004 8.53892 8.70724 8.46274 8.63106C8.38655 8.55487 8.34375 8.45154 8.34375 8.34379V6.31254C8.34375 6.2048 8.38655 6.10147 8.46274 6.02528C8.53892 5.94909 8.64226 5.90629 8.75 5.90629H9.96875V8.75004H8.75Z" fill="white"/>
</svg>
