<svg width="11" height="11" viewBox="0 0 11 11" fill="none" xmlns="http://www.w3.org/2000/svg">
<path d="M6.10938 8.14062C6.10938 8.26115 6.07364 8.37896 6.00668 8.47917C5.93972 8.57939 5.84455 8.65749 5.7332 8.70361C5.62185 8.74973 5.49933 8.7618 5.38112 8.73829C5.26291 8.71478 5.15433 8.65674 5.06911 8.57152C4.98389 8.48629 4.92585 8.37771 4.90234 8.25951C4.87882 8.1413 4.89089 8.01878 4.93701 7.90743C4.98313 7.79608 5.06124 7.70091 5.16145 7.63395C5.26166 7.56699 5.37948 7.53125 5.5 7.53125C5.66162 7.53125 5.81661 7.59545 5.93089 7.70973C6.04517 7.82401 6.10938 7.97901 6.10938 8.14062ZM5.5 2.65625C4.37977 2.65625 3.46875 3.47637 3.46875 4.48437V4.6875C3.46875 4.79524 3.51155 4.89857 3.58774 4.97476C3.66393 5.05095 3.76726 5.09375 3.875 5.09375C3.98275 5.09375 4.08608 5.05095 4.16226 4.97476C4.23845 4.89857 4.28125 4.79524 4.28125 4.6875V4.48437C4.28125 3.92578 4.82817 3.46875 5.5 3.46875C6.17184 3.46875 6.71875 3.92578 6.71875 4.48437C6.71875 5.04297 6.17184 5.5 5.5 5.5C5.39226 5.5 5.28893 5.5428 5.21274 5.61899C5.13655 5.69517 5.09375 5.79851 5.09375 5.90625V6.3125C5.09375 6.42024 5.13655 6.52358 5.21274 6.59976C5.28893 6.67595 5.39226 6.71875 5.5 6.71875C5.60775 6.71875 5.71108 6.67595 5.78726 6.59976C5.86345 6.52358 5.90625 6.42024 5.90625 6.3125V6.27594C6.8325 6.10582 7.53125 5.36695 7.53125 4.48437C7.53125 3.47637 6.62024 2.65625 5.5 2.65625ZM10.7813 5.5C10.7813 6.54453 10.4715 7.56561 9.8912 8.4341C9.31089 9.3026 8.48607 9.97951 7.52105 10.3792C6.55603 10.779 5.49414 10.8835 4.46968 10.6798C3.44522 10.476 2.50419 9.973 1.76559 9.23441C1.027 8.49581 0.524008 7.55478 0.32023 6.53032C0.116452 5.50586 0.221038 4.44397 0.620764 3.47895C1.02049 2.51393 1.6974 1.68911 2.5659 1.1088C3.43439 0.52849 4.45547 0.21875 5.5 0.21875C6.90022 0.220229 8.24267 0.777119 9.23278 1.76723C10.2229 2.75733 10.7798 4.09978 10.7813 5.5ZM9.96875 5.5C9.96875 4.61616 9.70666 3.75218 9.21563 3.0173C8.7246 2.28241 8.02668 1.70964 7.21012 1.37141C6.39356 1.03318 5.49504 0.944688 4.62819 1.11712C3.76134 1.28954 2.96508 1.71515 2.34012 2.34012C1.71515 2.96508 1.28955 3.76134 1.11712 4.62819C0.94469 5.49504 1.03319 6.39356 1.37142 7.21012C1.70964 8.02667 2.28242 8.7246 3.0173 9.21563C3.75218 9.70666 4.61617 9.96875 5.5 9.96875C6.68478 9.96741 7.82064 9.49616 8.6584 8.6584C9.49616 7.82064 9.96741 6.68477 9.96875 5.5Z" fill="white"/>
</svg>
