<svg width="12" height="13" viewBox="0 0 12 13" fill="none" xmlns="http://www.w3.org/2000/svg">
<path d="M11.2259 8.73434C11.2796 8.82745 11.2941 8.93803 11.2664 9.04187C11.2387 9.1457 11.171 9.23434 11.0781 9.28836L6.20312 12.1321C6.14101 12.1683 6.07039 12.1874 5.99848 12.1874C5.92657 12.1874 5.85595 12.1683 5.79383 12.1321L0.918828 9.28836C0.827266 9.23334 0.76106 9.14447 0.734543 9.04099C0.708026 8.93751 0.723333 8.82775 0.777149 8.73548C0.830965 8.6432 0.918959 8.57584 1.02208 8.54797C1.1252 8.52009 1.23515 8.53396 1.32812 8.58656L6 11.311L10.6719 8.58656C10.765 8.53291 10.8756 8.51833 10.9794 8.54603C11.0832 8.57372 11.1719 8.64143 11.2259 8.73434ZM10.6719 6.14906L6 8.87348L1.32812 6.14906C1.23562 6.10301 1.12905 6.09393 1.03009 6.12368C0.931136 6.15343 0.847235 6.21977 0.795467 6.3092C0.743699 6.39863 0.727954 6.50443 0.751438 6.60506C0.774922 6.70568 0.83587 6.79358 0.921875 6.85086L5.79688 9.69461C5.85899 9.73083 5.92961 9.74992 6.00152 9.74992C6.07343 9.74992 6.14405 9.73083 6.20617 9.69461L11.0812 6.85086C11.128 6.82437 11.1691 6.78884 11.2021 6.74634C11.2351 6.70384 11.2593 6.65521 11.2733 6.60327C11.2873 6.55134 11.2909 6.49713 11.2838 6.4438C11.2768 6.39047 11.2592 6.33908 11.2321 6.29261C11.2049 6.24614 11.1689 6.20551 11.126 6.17309C11.083 6.14067 11.0341 6.1171 10.982 6.10374C10.9299 6.09039 10.8756 6.08752 10.8224 6.0953C10.7691 6.10308 10.718 6.12135 10.6719 6.14906ZM0.71875 4.06246C0.718912 3.9913 0.73776 3.92144 0.773408 3.85986C0.809056 3.79828 0.860253 3.74714 0.921875 3.71156L5.79688 0.867811C5.85899 0.831587 5.92961 0.8125 6.00152 0.8125C6.07343 0.8125 6.14405 0.831587 6.20617 0.867811L11.0812 3.71156C11.1425 3.74734 11.1934 3.79857 11.2287 3.86013C11.2641 3.9217 11.2827 3.99146 11.2827 4.06246C11.2827 4.13346 11.2641 4.20322 11.2287 4.26479C11.1934 4.32635 11.1425 4.37758 11.0812 4.41336L6.20617 7.25711C6.14405 7.29333 6.07343 7.31242 6.00152 7.31242C5.92961 7.31242 5.85899 7.29333 5.79688 7.25711L0.921875 4.41336C0.860253 4.37778 0.809056 4.32664 0.773408 4.26506C0.73776 4.20348 0.718912 4.13362 0.71875 4.06246ZM1.93141 4.06246L6 6.43598L10.0686 4.06246L6 1.68894L1.93141 4.06246Z" fill="white"/>
</svg>
