<svg width="21" height="20" viewBox="0 0 21 20" fill="none" xmlns="http://www.w3.org/2000/svg">
<path d="M19.3558 7.59845C19.2776 7.35824 19.1302 7.14652 18.9319 6.98998C18.7337 6.83343 18.4935 6.73907 18.2417 6.71876L13.6324 6.34689L11.8527 2.04298C11.7564 1.80846 11.5926 1.60786 11.3821 1.46668C11.1715 1.3255 10.9237 1.25012 10.6702 1.25012C10.4167 1.25012 10.169 1.3255 9.95842 1.46668C9.74788 1.60786 9.58407 1.80846 9.48782 2.04298L7.7097 6.34611L3.09798 6.71876C2.84577 6.74009 2.60547 6.83538 2.40718 6.99267C2.20888 7.14997 2.06142 7.36229 1.98326 7.60303C1.9051 7.84376 1.89972 8.10221 1.96779 8.34599C2.03587 8.58977 2.17437 8.80804 2.36595 8.97345L5.88157 12.007L4.81048 16.543C4.75057 16.7894 4.76524 17.0481 4.85262 17.2862C4.93999 17.5242 5.09614 17.731 5.30123 17.8801C5.50632 18.0293 5.75111 18.1142 6.00452 18.124C6.25793 18.1338 6.50855 18.0681 6.72454 17.9352L10.6699 15.507L14.6175 17.9352C14.8336 18.0665 15.0837 18.1309 15.3363 18.1204C15.5889 18.1099 15.8328 18.0248 16.0372 17.876C16.2416 17.7271 16.3974 17.5211 16.4849 17.2839C16.5725 17.0467 16.5879 16.7889 16.5292 16.543L15.4542 12.0063L18.9699 8.97267C19.163 8.80753 19.3027 8.58879 19.3715 8.34415C19.4402 8.09951 19.4347 7.83999 19.3558 7.59845ZM18.1574 8.02579L14.3527 11.307C14.2659 11.3818 14.2014 11.479 14.1661 11.588C14.1308 11.697 14.1262 11.8136 14.1527 11.925L15.3152 16.8313C15.3182 16.838 15.3185 16.8457 15.316 16.8527C15.3135 16.8596 15.3085 16.8654 15.3019 16.8688C15.2878 16.8797 15.2839 16.8774 15.2722 16.8688L10.9972 14.2399C10.8987 14.1793 10.7854 14.1473 10.6699 14.1473C10.5543 14.1473 10.441 14.1793 10.3425 14.2399L6.06751 16.8703C6.05579 16.8774 6.05266 16.8797 6.03782 16.8703C6.03123 16.867 6.02617 16.8612 6.0237 16.8542C6.02123 16.8472 6.02153 16.8396 6.02454 16.8328L7.18704 11.9266C7.21353 11.8151 7.20889 11.6986 7.17362 11.5896C7.13835 11.4806 7.07381 11.3834 6.98704 11.3086L3.18235 8.02736C3.17298 8.01954 3.16438 8.01251 3.1722 7.98829C3.18001 7.96408 3.18626 7.9672 3.19798 7.96564L8.19173 7.56251C8.30627 7.55269 8.41588 7.51146 8.5085 7.44337C8.60113 7.37528 8.67318 7.28297 8.71673 7.17658L10.6402 2.51954C10.6464 2.50626 10.6488 2.50001 10.6675 2.50001C10.6863 2.50001 10.6886 2.50626 10.6949 2.51954L12.623 7.17658C12.6669 7.28301 12.7394 7.37522 12.8325 7.44305C12.9256 7.51088 13.0355 7.55168 13.1503 7.56095L18.1441 7.96408C18.1558 7.96408 18.1628 7.96408 18.1699 7.98673C18.1769 8.00939 18.1699 8.01798 18.1574 8.02579Z" fill="white"/>
</svg>
