<svg width="17" height="20" viewBox="0 0 17 20" fill="none" xmlns="http://www.w3.org/2000/svg">
<path d="M15.25 6.25H9.25V1.75C9.25 1.35218 9.09196 0.970644 8.81066 0.68934C8.52936 0.408035 8.14782 0.25 7.75 0.25H1.75C1.35218 0.25 0.970644 0.408035 0.68934 0.68934C0.408035 0.970644 0.25 1.35218 0.25 1.75V6.25C0.25 6.64782 0.408035 7.02936 0.68934 7.31066C0.970644 7.59196 1.35218 7.75 1.75 7.75H7.75V12.25H1.75C1.35218 12.25 0.970644 12.408 0.68934 12.6893C0.408035 12.9706 0.25 13.3522 0.25 13.75V18.25C0.25 18.6478 0.408035 19.0294 0.68934 19.3107C0.970644 19.592 1.35218 19.75 1.75 19.75H7.75C8.14782 19.75 8.52936 19.592 8.81066 19.3107C9.09196 19.0294 9.25 18.6478 9.25 18.25V13.75H15.25C15.6478 13.75 16.0294 13.592 16.3107 13.3107C16.592 13.0294 16.75 12.6478 16.75 12.25V7.75C16.75 7.35218 16.592 6.97064 16.3107 6.68934C16.0294 6.40804 15.6478 6.25 15.25 6.25ZM7.75 18.25H1.75V13.75H7.75V18.25ZM7.75 1.75V6.25H1.75V1.75H7.75ZM15.25 12.25H9.25V7.75H15.25V12.25Z" fill="white"/>
</svg>
