<svg width="22" height="20" viewBox="0 0 22 20" fill="none" xmlns="http://www.w3.org/2000/svg">
<path d="M15.7024 15.5H9.43611C9.3226 16.1718 9.05803 16.809 8.66237 17.3636C8.26672 17.9182 7.7503 18.3757 7.15205 18.7017C6.55381 19.0277 5.88937 19.2135 5.20883 19.2453C4.52829 19.2771 3.84942 19.1539 3.22342 18.8851C2.59742 18.6163 2.04062 18.2088 1.59502 17.6935C1.14943 17.1781 0.826661 16.5683 0.651065 15.91C0.475468 15.2518 0.451627 14.5622 0.581338 13.8934C0.711049 13.2246 0.990927 12.594 1.39986 12.0491C1.51934 11.8899 1.69713 11.7848 1.89413 11.7567C2.09113 11.7287 2.2912 11.7801 2.45033 11.8995C2.60946 12.019 2.71462 12.1968 2.74266 12.3938C2.7707 12.5908 2.71934 12.7909 2.59986 12.95C2.2085 13.4683 1.99775 14.1006 1.99986 14.75C1.99986 15.5457 2.31593 16.3087 2.87854 16.8713C3.44115 17.4339 4.20421 17.75 4.99986 17.75C5.79551 17.75 6.55858 17.4339 7.12119 16.8713C7.68379 16.3087 7.99986 15.5457 7.99986 14.75C7.99986 14.5511 8.07888 14.3603 8.21953 14.2197C8.36019 14.079 8.55095 14 8.74986 14H15.7024C15.8675 13.714 16.1223 13.4906 16.4274 13.3642C16.7324 13.2378 17.0707 13.2157 17.3896 13.3011C17.7086 13.3866 17.9904 13.5749 18.1914 13.8369C18.3924 14.0988 18.5014 14.4198 18.5014 14.75C18.5014 15.0802 18.3924 15.4012 18.1914 15.6631C17.9904 15.9251 17.7086 16.1134 17.3896 16.1989C17.0707 16.2844 16.7324 16.2622 16.4274 16.1358C16.1223 16.0095 15.8675 15.786 15.7024 15.5ZM4.99986 16.25C5.25966 16.2501 5.51503 16.1827 5.74096 16.0544C5.96689 15.9262 6.15563 15.7414 6.2887 15.5183C6.42176 15.2952 6.4946 15.0413 6.50006 14.7816C6.50552 14.5218 6.44343 14.2651 6.31986 14.0366L9.6733 8.58595C9.77738 8.41659 9.80996 8.21285 9.76391 8.01949C9.71785 7.82612 9.59692 7.65895 9.42768 7.55469C9.02681 7.30791 8.68964 6.97025 8.44343 6.56903C8.19723 6.1678 8.0489 5.71426 8.01044 5.24509C7.97198 4.77592 8.04447 4.30428 8.22204 3.86832C8.39962 3.43235 8.6773 3.04429 9.03263 2.73552C9.38796 2.42674 9.81096 2.20592 10.2674 2.09091C10.7239 1.97589 11.2011 1.96992 11.6603 2.07346C12.1195 2.177 12.5479 2.38716 12.9108 2.68693C13.2738 2.98671 13.5611 3.36769 13.7496 3.79907C13.8291 3.98145 13.9779 4.12475 14.1631 4.19745C14.3483 4.27015 14.5548 4.26629 14.7372 4.18673C14.9196 4.10716 15.0629 3.95841 15.1356 3.77318C15.2083 3.58796 15.2044 3.38145 15.1249 3.19907C14.8547 2.58147 14.4492 2.03246 13.9384 1.59259C13.4276 1.15272 12.8245 0.833241 12.1736 0.657741C11.5228 0.482242 10.8408 0.455212 10.1781 0.578648C9.51537 0.702083 8.88886 0.97283 8.34483 1.37089C7.8008 1.76895 7.35315 2.28414 7.03495 2.87842C6.71676 3.4727 6.53614 4.13088 6.50644 4.80433C6.47675 5.47778 6.59873 6.1493 6.86339 6.76928C7.12804 7.38926 7.52861 7.94186 8.03549 8.38626L5.04111 13.25C5.02705 13.25 5.01393 13.25 4.99986 13.25C4.60204 13.25 4.22051 13.408 3.9392 13.6893C3.6579 13.9707 3.49986 14.3522 3.49986 14.75C3.49986 15.1478 3.6579 15.5294 3.9392 15.8107C4.22051 16.092 4.60204 16.25 4.99986 16.25ZM16.9999 10.25C16.4216 10.25 15.8487 10.3611 15.3124 10.5772L12.3199 5.71251C12.4758 5.42355 12.5327 5.0914 12.4817 4.76702C12.4307 4.44265 12.2746 4.14397 12.0375 3.91682C11.8004 3.68967 11.4953 3.5466 11.169 3.50958C10.8428 3.47255 10.5134 3.5436 10.2314 3.71183C9.94938 3.88007 9.73038 4.13619 9.60799 4.44088C9.48559 4.74558 9.46656 5.08202 9.55381 5.39858C9.64106 5.71514 9.82978 5.99432 10.091 6.19329C10.3522 6.39225 10.6715 6.5 10.9999 6.50001H11.0411L14.3955 11.9516C14.4999 12.1207 14.6671 12.2414 14.8605 12.2873C15.0538 12.3331 15.2575 12.3004 15.4267 12.1963C15.8216 11.9528 16.2675 11.8043 16.7295 11.7623C17.1915 11.7203 17.6569 11.786 18.0891 11.9543C18.5214 12.1225 18.9088 12.3887 19.2208 12.732C19.5329 13.0752 19.761 13.4861 19.8875 13.9324C20.0139 14.3787 20.0351 14.8483 19.9494 15.3041C19.8637 15.76 19.6735 16.1898 19.3937 16.5598C19.1138 16.9297 18.752 17.2298 18.3367 17.4363C17.9213 17.6428 17.4637 17.7502 16.9999 17.75C16.801 17.75 16.6102 17.829 16.4695 17.9697C16.3289 18.1103 16.2499 18.3011 16.2499 18.5C16.2499 18.6989 16.3289 18.8897 16.4695 19.0303C16.6102 19.171 16.801 19.25 16.9999 19.25C18.1933 19.25 19.3379 18.7759 20.1818 17.932C21.0258 17.0881 21.4999 15.9435 21.4999 14.75C21.4999 13.5565 21.0258 12.4119 20.1818 11.568C19.3379 10.7241 18.1933 10.25 16.9999 10.25Z" fill="white"/>
</svg>
