<svg width="12" height="11" viewBox="0 0 12 11" fill="none" xmlns="http://www.w3.org/2000/svg">
<path d="M10.2406 4.28684C10.1344 4.30462 10.0395 4.36389 9.97694 4.4516C9.91437 4.5393 9.8892 4.64827 9.90698 4.75454C9.94823 5.00088 9.96895 5.25023 9.96893 5.50001C9.96989 6.59393 9.56784 7.64988 8.83956 8.46614C8.38647 7.80958 7.74938 7.30163 7.00838 7.00618C7.40642 6.69268 7.69686 6.26293 7.83933 5.77671C7.9818 5.29049 7.96921 4.77195 7.80332 4.29321C7.63743 3.81447 7.32647 3.39933 6.9137 3.10551C6.50092 2.81169 6.00685 2.65381 5.50018 2.65381C4.99351 2.65381 4.49944 2.81169 4.08667 3.10551C3.67389 3.39933 3.36294 3.81447 3.19704 4.29321C3.03115 4.77195 3.01856 5.29049 3.16103 5.77671C3.3035 6.26293 3.59395 6.69268 3.99198 7.00618C3.25099 7.30163 2.61389 7.80958 2.16081 8.46614C1.58937 7.82221 1.21611 7.02693 1.08589 6.17593C0.955673 5.32492 1.07405 4.45441 1.42678 3.66907C1.77952 2.88373 2.35159 2.21701 3.07422 1.74905C3.79685 1.2811 4.63927 1.03184 5.50018 1.03126C5.74996 1.03122 5.99931 1.05194 6.24565 1.09321C6.35143 1.1099 6.45953 1.08415 6.54642 1.02155C6.63332 0.958955 6.69198 0.864581 6.70965 0.758958C6.72732 0.653334 6.70257 0.545005 6.64078 0.457535C6.57899 0.370065 6.48517 0.31053 6.37971 0.291881C5.27646 0.106283 4.14277 0.276105 3.14232 0.776829C2.14188 1.27755 1.32645 2.08327 0.813775 3.07764C0.301098 4.07201 0.117701 5.20358 0.290064 6.30898C0.462426 7.41438 0.98163 8.4364 1.77271 9.22748C2.56379 10.0186 3.58581 10.5378 4.69121 10.7101C5.7966 10.8825 6.92818 10.6991 7.92255 10.1864C8.91692 9.67374 9.72263 8.85831 10.2234 7.85786C10.7241 6.85742 10.8939 5.72373 10.7083 4.62047C10.6905 4.51421 10.6313 4.41937 10.5436 4.3568C10.4558 4.29423 10.3469 4.26907 10.2406 4.28684ZM3.87518 5.09376C3.87518 4.77236 3.97049 4.45818 4.14904 4.19095C4.3276 3.92372 4.58139 3.71544 4.87832 3.59245C5.17525 3.46946 5.50198 3.43728 5.8172 3.49998C6.13242 3.56268 6.42197 3.71745 6.64923 3.94471C6.87649 4.17197 7.03126 4.46151 7.09396 4.77673C7.15666 5.09195 7.12448 5.41869 7.00149 5.71562C6.87849 6.01255 6.67021 6.26634 6.40298 6.44489C6.13575 6.62345 5.82158 6.71876 5.50018 6.71876C5.0692 6.71876 4.65588 6.54755 4.35113 6.2428C4.04639 5.93806 3.87518 5.52473 3.87518 5.09376ZM2.76206 9.0293C3.05594 8.56967 3.46081 8.19142 3.93933 7.92941C4.41785 7.6674 4.95463 7.53007 5.50018 7.53007C6.04574 7.53007 6.58251 7.6674 7.06103 7.92941C7.53955 8.19142 7.94442 8.56967 8.23831 9.0293C7.45543 9.63816 6.49195 9.96872 5.50018 9.96872C4.50841 9.96872 3.54493 9.63816 2.76206 9.0293ZM11.0689 1.31868L9.44385 2.94368C9.40612 2.98145 9.36132 3.01141 9.312 3.03186C9.26268 3.0523 9.20982 3.06283 9.15643 3.06283C9.10304 3.06283 9.05018 3.0523 9.00086 3.03186C8.95154 3.01141 8.90674 2.98145 8.86901 2.94368L8.05651 2.13118C8.01876 2.09343 7.98882 2.04862 7.9684 1.99931C7.94797 1.94999 7.93745 1.89714 7.93745 1.84376C7.93745 1.79038 7.94797 1.73752 7.9684 1.6882C7.98882 1.63889 8.01876 1.59408 8.05651 1.55633C8.13274 1.4801 8.23613 1.43728 8.34393 1.43728C8.39731 1.43728 8.45017 1.44779 8.49948 1.46822C8.5488 1.48865 8.59361 1.51859 8.63135 1.55633L9.15643 2.08192L10.494 0.743834C10.5318 0.706089 10.5766 0.676148 10.6259 0.655721C10.6752 0.635294 10.7281 0.62478 10.7814 0.62478C10.8348 0.62478 10.8877 0.635294 10.937 0.655721C10.9863 0.676148 11.0311 0.706089 11.0689 0.743834C11.1066 0.781579 11.1365 0.826388 11.157 0.875704C11.1774 0.92502 11.1879 0.977877 11.1879 1.03126C11.1879 1.08463 11.1774 1.13749 11.157 1.18681C11.1365 1.23612 11.1066 1.28093 11.0689 1.31868Z" fill="white"/>
</svg>
