<svg width="13" height="13" viewBox="0 0 13 13" fill="none" xmlns="http://www.w3.org/2000/svg">
<path d="M11.4695 5.22133C11.278 5.02125 11.08 4.81508 11.0053 4.63379C10.9362 4.46773 10.9322 4.1925 10.9281 3.9259C10.9205 3.43027 10.9124 2.86863 10.5219 2.47812C10.1314 2.08762 9.56973 2.07949 9.0741 2.07187C8.8075 2.06781 8.53227 2.06375 8.36621 1.99469C8.18543 1.92004 7.97875 1.72199 7.77867 1.53055C7.42828 1.19387 7.03016 0.8125 6.5 0.8125C5.96984 0.8125 5.57223 1.19387 5.22133 1.53055C5.02125 1.72199 4.81508 1.92004 4.63379 1.99469C4.46875 2.06375 4.1925 2.06781 3.9259 2.07187C3.43027 2.07949 2.86863 2.08762 2.47812 2.47812C2.08762 2.86863 2.08203 3.43027 2.07187 3.9259C2.06781 4.1925 2.06375 4.46773 1.99469 4.63379C1.92004 4.81457 1.72199 5.02125 1.53055 5.22133C1.19387 5.57172 0.8125 5.96984 0.8125 6.5C0.8125 7.03016 1.19387 7.42777 1.53055 7.77867C1.72199 7.97875 1.92004 8.18492 1.99469 8.36621C2.06375 8.53227 2.06781 8.8075 2.07187 9.0741C2.07949 9.56973 2.08762 10.1314 2.47812 10.5219C2.86863 10.9124 3.43027 10.9205 3.9259 10.9281C4.1925 10.9322 4.46773 10.9362 4.63379 11.0053C4.81457 11.08 5.02125 11.278 5.22133 11.4695C5.57172 11.8061 5.96984 12.1875 6.5 12.1875C7.03016 12.1875 7.42777 11.8061 7.77867 11.4695C7.97875 11.278 8.18492 11.08 8.36621 11.0053C8.53227 10.9362 8.8075 10.9322 9.0741 10.9281C9.56973 10.9205 10.1314 10.9124 10.5219 10.5219C10.9124 10.1314 10.9205 9.56973 10.9281 9.0741C10.9322 8.8075 10.9362 8.53227 11.0053 8.36621C11.08 8.18543 11.278 7.97875 11.4695 7.77867C11.8061 7.42828 12.1875 7.03016 12.1875 6.5C12.1875 5.96984 11.8061 5.57223 11.4695 5.22133ZM10.8829 7.21652C10.6397 7.47043 10.3878 7.73297 10.2543 8.05543C10.1263 8.3652 10.1207 8.71914 10.1156 9.06191C10.1105 9.41738 10.105 9.78961 9.94703 9.94703C9.7891 10.1045 9.41941 10.1105 9.06191 10.1156C8.71914 10.1207 8.3652 10.1263 8.05543 10.2543C7.73297 10.3878 7.47043 10.6397 7.21652 10.8829C6.96262 11.1262 6.70312 11.375 6.5 11.375C6.29688 11.375 6.03535 11.1252 5.78348 10.8829C5.5316 10.6407 5.26703 10.3878 4.94457 10.2543C4.6348 10.1263 4.28086 10.1207 3.93809 10.1156C3.58262 10.1105 3.21039 10.105 3.05297 9.94703C2.89555 9.7891 2.88945 9.41941 2.88437 9.06191C2.8793 8.71914 2.87371 8.3652 2.74574 8.05543C2.61219 7.73297 2.36031 7.47043 2.11707 7.21652C1.87383 6.96262 1.625 6.70312 1.625 6.5C1.625 6.29688 1.87484 6.03535 2.11707 5.78348C2.3593 5.5316 2.61219 5.26703 2.74574 4.94457C2.87371 4.6348 2.8793 4.28086 2.88437 3.93809C2.88945 3.58262 2.89504 3.21039 3.05297 3.05297C3.2109 2.89555 3.58059 2.88945 3.93809 2.88437C4.28086 2.8793 4.6348 2.87371 4.94457 2.74574C5.26703 2.61219 5.52957 2.36031 5.78348 2.11707C6.03738 1.87383 6.29688 1.625 6.5 1.625C6.70312 1.625 6.96465 1.87484 7.21652 2.11707C7.4684 2.3593 7.73297 2.61219 8.05543 2.74574C8.3652 2.87371 8.71914 2.8793 9.06191 2.88437C9.41738 2.88945 9.78961 2.89504 9.94703 3.05297C10.1045 3.2109 10.1105 3.58059 10.1156 3.93809C10.1207 4.28086 10.1263 4.6348 10.2543 4.94457C10.3878 5.26703 10.6397 5.52957 10.8829 5.78348C11.1262 6.03738 11.375 6.29688 11.375 6.5C11.375 6.70312 11.1252 6.96465 10.8829 7.21652ZM8.81867 4.99383C8.85644 5.03156 8.88641 5.07636 8.90685 5.12568C8.9273 5.175 8.93782 5.22786 8.93782 5.28125C8.93782 5.33464 8.9273 5.3875 8.90685 5.43682C8.88641 5.48614 8.85644 5.53094 8.81867 5.56867L5.97492 8.41242C5.93719 8.45019 5.89239 8.48016 5.84307 8.5006C5.79375 8.52105 5.74089 8.53157 5.6875 8.53157C5.63411 8.53157 5.58125 8.52105 5.53193 8.5006C5.48261 8.48016 5.43781 8.45019 5.40008 8.41242L4.18133 7.19367C4.1051 7.11744 4.06227 7.01405 4.06227 6.90625C4.06227 6.79845 4.1051 6.69506 4.18133 6.61883C4.25756 6.5426 4.36095 6.49977 4.46875 6.49977C4.57655 6.49977 4.67994 6.5426 4.75617 6.61883L5.6875 7.55066L8.24383 4.99383C8.28156 4.95606 8.32636 4.92609 8.37568 4.90565C8.425 4.8852 8.47786 4.87468 8.53125 4.87468C8.58464 4.87468 8.6375 4.8852 8.68682 4.90565C8.73614 4.92609 8.78094 4.95606 8.81867 4.99383Z" fill="white"/>
</svg>
