<svg width="23" height="24" viewBox="0 0 23 24" fill="none" xmlns="http://www.w3.org/2000/svg">
<g clip-path="url(#clip0_459_1307)">
<path d="M21.3228 12C21.3038 11.325 21.0978 10.667 20.7268 10.101C20.3568 9.537 19.8358 9.085 19.2238 8.799C19.4568 8.164 19.5058 7.477 19.3698 6.816C19.2328 6.153 18.9128 5.542 18.4478 5.052C17.9568 4.587 17.3468 4.268 16.6838 4.13C16.0228 3.994 15.3358 4.043 14.7008 4.276C14.4158 3.662 13.9648 3.141 13.3998 2.771C12.8338 2.401 12.1758 2.194 11.4998 2.177C10.8248 2.195 10.1688 2.4 9.60476 2.771C9.03976 3.142 8.59176 3.664 8.30776 4.276C7.67276 4.043 6.98376 3.992 6.31976 4.13C5.65576 4.266 5.04376 4.586 4.55276 5.052C4.08776 5.543 3.76976 6.155 3.63476 6.817C3.49876 7.478 3.55076 8.165 3.78576 8.799C3.17176 9.085 2.64876 9.536 2.27676 10.1C1.90476 10.665 1.69676 11.324 1.67676 12C1.69776 12.676 1.90476 13.334 2.27676 13.9C2.64876 14.464 3.17176 14.916 3.78576 15.201C3.55076 15.835 3.49876 16.522 3.63476 17.183C3.77076 17.846 4.08776 18.457 4.55176 18.948C5.04276 19.411 5.65376 19.729 6.31576 19.866C6.97676 20.004 7.66376 19.954 8.29876 19.724C8.58476 20.336 9.03576 20.857 9.60076 21.228C10.1658 21.598 10.8248 21.804 11.4998 21.823C12.1758 21.806 12.8338 21.6 13.3998 21.23C13.9648 20.86 14.4158 20.337 14.7008 19.725C15.3328 19.975 16.0248 20.034 16.6908 19.896C17.3558 19.758 17.9658 19.429 18.4468 18.948C18.9278 18.467 19.2578 17.857 19.3958 17.191C19.5338 16.525 19.4748 15.833 19.2238 15.201C19.8358 14.915 20.3568 14.464 20.7278 13.899C21.0978 13.334 21.3038 12.675 21.3228 12ZM10.1008 16.025L6.51576 12.441L7.86776 11.08L10.0338 13.246L14.6338 8.234L16.0418 9.537L10.1008 16.025Z" fill="#4F1AD6"/>
<path d="M8 11L6.5 12.5L10 16L16 9.5L14.5 8L10 13L8 11Z" fill="white"/>
</g>
<defs>
<clipPath id="clip0_459_1307">
<rect width="23" height="23" fill="white" transform="translate(0 0.5)"/>
</clipPath>
</defs>
</svg>
