<svg width="17" height="19" viewBox="0 0 17 19" fill="none" xmlns="http://www.w3.org/2000/svg">
<path d="M16.7932 16.8478L10.9244 7.62469L16.7153 1.25438C16.8463 1.10674 16.9138 0.913434 16.9032 0.716365C16.8926 0.519295 16.8048 0.334346 16.6587 0.201615C16.5127 0.0688843 16.3202 -0.00092985 16.123 0.00730857C15.9258 0.015547 15.7398 0.101174 15.6053 0.245625L10.0891 6.31312L6.29316 0.347813C6.22547 0.24127 6.13198 0.153535 6.02137 0.0927355C5.91075 0.0319361 5.78657 3.91221e-05 5.66035 8.87202e-08H1.16034C1.02587 -6.53095e-05 0.893853 0.0360256 0.778114 0.104494C0.662376 0.172962 0.567175 0.271288 0.50248 0.389177C0.437785 0.507066 0.405976 0.64018 0.410383 0.774582C0.414791 0.908984 0.455253 1.03973 0.527532 1.15313L6.39628 10.3753L0.605345 16.7503C0.53772 16.823 0.485185 16.9083 0.450786 17.0014C0.416387 17.0945 0.400808 17.1935 0.404951 17.2927C0.409094 17.3918 0.432877 17.4892 0.474922 17.5791C0.516967 17.669 0.576437 17.7496 0.649886 17.8164C0.723335 17.8831 0.809301 17.9346 0.902803 17.9679C0.996305 18.0012 1.09548 18.0156 1.19459 18.0103C1.29369 18.0049 1.39075 17.98 1.48014 17.9369C1.56954 17.8937 1.64948 17.8333 1.71534 17.7591L7.2316 11.6916L11.0275 17.6569C11.0958 17.7625 11.1895 17.8494 11.3001 17.9093C11.4107 17.9693 11.5346 18.0005 11.6603 18H16.1603C16.2947 18 16.4265 17.9638 16.5421 17.8954C16.6577 17.827 16.7528 17.7288 16.8175 17.611C16.8822 17.4933 16.914 17.3604 16.9097 17.2261C16.9055 17.0918 16.8652 16.9612 16.7932 16.8478ZM12.0719 16.5L2.52628 1.5H5.24503L14.7944 16.5H12.0719Z" fill="white"/>
</svg>
