<svg width="15" height="14" viewBox="0 0 15 14" fill="none" xmlns="http://www.w3.org/2000/svg">
<path d="M14.4101 1V10.75C14.4101 10.9489 14.3311 11.1397 14.1904 11.2803C14.0498 11.421 13.859 11.5 13.6601 11.5C13.4612 11.5 13.2704 11.421 13.1298 11.2803C12.9891 11.1397 12.9101 10.9489 12.9101 10.75V2.81031L2.19071 13.5306C2.04998 13.6714 1.85911 13.7504 1.66008 13.7504C1.46106 13.7504 1.27019 13.6714 1.12946 13.5306C0.988729 13.3899 0.909668 13.199 0.909668 13C0.909668 12.801 0.988729 12.6101 1.12946 12.4694L11.8498 1.75H3.91008C3.71117 1.75 3.52041 1.67098 3.37976 1.53033C3.2391 1.38968 3.16008 1.19891 3.16008 1C3.16008 0.801088 3.2391 0.610322 3.37976 0.46967C3.52041 0.329018 3.71117 0.25 3.91008 0.25H13.6601C13.859 0.25 14.0498 0.329018 14.1904 0.46967C14.3311 0.610322 14.4101 0.801088 14.4101 1Z" fill="white"/>
</svg>
